# xmcd CD database file
# Copyright (C) 1993-1998 Ti Kan
# Generated: Tue Mar 31 14:41:12 1998 by KSCD
# 
# Track frame offsets:
#       182
#       14475
#       29117
#       43780
#       59772
#       74775
#       89317
#       101600
#       119840
#       132247
#       152855
#       170662
#       180792
#       191060
#
# Disc length: 2691 seconds
#
# Revision: 2
# Processed by: cddbd v1.4b41PL1 Copyright (c) Steve Scherf et al.
# Submitted via: Kscd 0.8.0
#
DISCID=d60a810e
DTITLE=Trucker Songs - Folge 5
DYEAR=1900
DGENRE=
TTITLE0=Mexican Rose
TTITLE1=What Are We Doing In Love
TTITLE2=Detroit City
TTITLE3=Redneck Girl
TTITLE4=How Could I Love Her So Much
TTITLE5=Home Again In My Heart
TTITLE6=Dixie Man
TTITLE7=Pictures
TTITLE8=Where Does An Angel Go
TTITLE9=Tip Of My Fingers
TTITLE10=Let´s Take It Nice And Easy
TTITLE11=Womanhood
TTITLE12=Walk On By
TTITLE13=Even Cowgir Get The Blues
EXTD=
EXTT0=
EXTT1=
EXTT2=
EXTT3=
EXTT4=
EXTT5=
EXTT6=
EXTT7=
EXTT8=
EXTT9=
EXTT10=
EXTT11=
EXTT12=
EXTT13=
PLAYORDER=
